<svg id="visual" viewBox="0 0 1100 450" width="1100" height="450" xmlns="http://www.w3.org/2000/svg" xmlns:xlink="http://www.w3.org/1999/xlink" version="1.1"><path d="M0 380L26.2 365.7C52.3 351.3 104.7 322.7 157 308.3C209.3 294 261.7 294 314 307.5C366.3 321 418.7 348 471.2 361.3C523.7 374.7 576.3 374.3 628.8 367.2C681.3 360 733.7 346 786 346.8C838.3 347.7 890.7 363.3 943 365.3C995.3 367.3 1047.7 355.7 1073.8 349.8L1100 344L1100 451L1073.8 451C1047.7 451 995.3 451 943 451C890.7 451 838.3 451 786 451C733.7 451 681.3 451 628.8 451C576.3 451 523.7 451 471.2 451C418.7 451 366.3 451 314 451C261.7 451 209.3 451 157 451C104.7 451 52.3 451 26.2 451L0 451Z" fill="#222c3b" stroke-linecap="round" stroke-linejoin="miter"></path></svg>